<svg width="228" height="35" viewBox="0 0 228 35" fill="none" xmlns="http://www.w3.org/2000/svg">
<path d="M10.8652 7.45212L11.2249 6.62464C12.2443 6.66062 13.0958 6.82252 13.7793 7.11034C14.4629 7.39815 14.9726 7.7999 15.3084 8.31558C15.6561 8.81926 15.83 9.42488 15.83 10.1324C15.83 10.864 15.6621 11.5236 15.3264 12.1112C15.0026 12.6988 14.5049 13.1605 13.8333 13.4963C13.1617 13.8321 12.3222 14 11.3149 14H0.719547L1.7449 7.07436L0.719547 0.508489H10.9371C12.1843 0.508489 13.1617 0.802304 13.8693 1.38993C14.5768 1.96557 14.9306 2.76907 14.9306 3.80042C14.9306 4.38805 14.7987 4.9397 14.5349 5.45538C14.271 5.97105 13.8393 6.40878 13.2397 6.76855C12.652 7.11633 11.8605 7.34419 10.8652 7.45212ZM5.25269 12.9926L3.4898 10.9239H9.83981C10.2356 10.9239 10.5474 10.822 10.7752 10.6181C11.0031 10.4023 11.117 10.1144 11.117 9.75467C11.117 9.43088 11.0031 9.15505 10.7752 8.92719C10.5594 8.69934 10.2356 8.58541 9.80383 8.58541H4.47918V5.56331H9.12026C9.43207 5.56331 9.6899 5.46737 9.89377 5.27549C10.1096 5.08361 10.2176 4.83777 10.2176 4.53795C10.2176 4.26213 10.1216 4.03427 9.92975 3.85438C9.73787 3.6745 9.46804 3.58455 9.12026 3.58455H3.50779L5.25269 1.51586L6.17012 7.07436L5.25269 12.9926ZM20.781 6.28286H25.3141C25.7699 6.28286 26.1236 6.17492 26.3755 5.95906C26.6273 5.7432 26.7532 5.43139 26.7532 5.02365C26.7532 4.6159 26.6273 4.3041 26.3755 4.08824C26.1236 3.87237 25.7699 3.76444 25.3141 3.76444H20.1334L22.2201 1.67775V14H17.579V0.508489H26.0337C27.113 0.508489 28.0544 0.700368 28.8579 1.08413C29.6734 1.45589 30.303 1.97756 30.7467 2.64914C31.2024 3.32072 31.4303 4.11222 31.4303 5.02365C31.4303 5.91109 31.2024 6.6966 30.7467 7.38017C30.303 8.05174 29.6734 8.57341 28.8579 8.94518C28.0544 9.31695 27.113 9.50283 26.0337 9.50283H20.781V6.28286ZM22.364 7.68597H27.4908L31.97 14H26.6633L22.364 7.68597ZM36.5077 11.7334V8.04575H45.7V11.7334H36.5077ZM44.2789 0.508489L50.1971 14H45.2502L40.5912 2.5592H41.7784L37.1194 14H32.1725L38.0908 0.508489H44.2789ZM63.9062 10.6181L62.647 10.9239V0.508489H67.1442V14H61.3338L54.642 3.60254L55.9012 3.29673V14H51.4041V0.508489H57.3943L63.9062 10.6181ZM76.6443 0.508489C78.2873 0.508489 79.7204 0.790312 80.9436 1.35396C82.1788 1.90561 83.1382 2.68512 83.8218 3.69249C84.5053 4.69985 84.8471 5.8871 84.8471 7.25424C84.8471 8.60939 84.5053 9.79664 83.8218 10.816C83.1382 11.8234 82.1788 12.6089 80.9436 13.1725C79.7204 13.7242 78.2873 14 76.6443 14H69.4848V0.508489H76.6443ZM74.0899 11.9313L72.0032 9.8626H77.0041C77.6636 9.8626 78.2273 9.76067 78.695 9.5568C79.1747 9.34093 79.5405 9.04112 79.7923 8.65736C80.0441 8.26161 80.1701 7.79391 80.1701 7.25424C80.1701 6.70259 80.0441 6.23489 79.7923 5.85113C79.5405 5.46737 79.1747 5.17355 78.695 4.96968C78.2273 4.75382 77.6636 4.64589 77.0041 4.64589H72.0032L74.0899 2.57719V11.9313ZM93.723 11.7334V8.04575H102.915V11.7334H93.723ZM101.494 0.508489L107.412 14H102.465L97.8064 2.5592H98.9937L94.3346 14H89.3877L95.306 0.508489H101.494ZM121.121 10.6181L119.862 10.9239V0.508489H124.359V14H118.549L111.857 3.60254L113.116 3.29673V14H108.619V0.508489H114.61L121.121 10.6181ZM129.902 11.7334V8.04575H139.094V11.7334H129.902ZM137.673 0.508489L143.591 14H138.645L133.985 2.5592H135.173L130.514 14H125.567L131.485 0.508489H137.673ZM149.439 0.508489V11.9493L147.353 9.8626H157.39V14H144.798V0.508489H149.439ZM160.964 14V7.34419H165.605V14H160.964ZM154.668 0.508489H159.758L164.237 6.28286H162.313L166.774 0.508489H171.865L164.777 9.61076L161.773 9.66473L154.668 0.508489ZM177.21 2.50523H181.851V14H177.21V2.50523ZM172.353 0.508489H186.708V4.64589H172.353V0.508489ZM188.342 0.508489H192.983V14H188.342V0.508489ZM210.827 8.15368C210.683 9.3889 210.257 10.4682 209.55 11.3916C208.854 12.3151 207.931 13.0346 206.779 13.5503C205.628 14.066 204.309 14.3238 202.822 14.3238C201.215 14.3238 199.812 14.03 198.612 13.4424C197.413 12.8547 196.478 12.0332 195.806 10.9779C195.147 9.91057 194.817 8.66935 194.817 7.25424C194.817 5.83914 195.147 4.60391 195.806 3.54858C196.478 2.48125 197.413 1.65377 198.612 1.06614C199.812 0.478509 201.215 0.184694 202.822 0.184694C204.309 0.184694 205.628 0.442531 206.779 0.958207C207.931 1.47388 208.854 2.19343 209.55 3.11685C210.257 4.04027 210.683 5.11959 210.827 6.35481H206.168C206.06 5.88711 205.862 5.49135 205.574 5.16756C205.286 4.83177 204.908 4.57993 204.441 4.41203C203.985 4.23215 203.445 4.1422 202.822 4.1422C202.126 4.1422 201.527 4.26812 201.023 4.51997C200.531 4.75981 200.153 5.11359 199.89 5.5813C199.626 6.049 199.494 6.60665 199.494 7.25424C199.494 7.90184 199.626 8.45949 199.89 8.92719C200.153 9.38291 200.531 9.73668 201.023 9.98852C201.527 10.2404 202.126 10.3663 202.822 10.3663C203.445 10.3663 203.985 10.2883 204.441 10.1324C204.908 9.96454 205.286 9.71869 205.574 9.3949C205.862 9.05911 206.06 8.64537 206.168 8.15368H210.827ZM212.126 9.5568H216.839C216.887 9.82063 217.025 10.0485 217.253 10.2404C217.481 10.4203 217.792 10.5642 218.188 10.6721C218.584 10.768 219.058 10.816 219.609 10.816C220.329 10.816 220.886 10.744 221.282 10.6001C221.69 10.4562 221.894 10.2224 221.894 9.89858C221.894 9.68272 221.78 9.50283 221.552 9.35892C221.324 9.20302 220.856 9.10108 220.149 9.05311L217.918 8.9092C215.892 8.77729 214.428 8.34556 213.529 7.61402C212.63 6.88248 212.18 5.91709 212.18 4.71784C212.18 3.71047 212.468 2.871 213.043 2.19943C213.619 1.52785 214.422 1.02417 215.454 0.688377C216.497 0.352588 217.714 0.184694 219.105 0.184694C220.461 0.184694 221.66 0.376573 222.703 0.760331C223.759 1.1321 224.592 1.65977 225.204 2.34334C225.827 3.02691 226.169 3.8244 226.229 4.73583H221.516C221.48 4.51996 221.36 4.33408 221.156 4.17818C220.964 4.02228 220.688 3.90235 220.329 3.81841C219.969 3.73446 219.531 3.69249 219.016 3.69249C218.356 3.69249 217.834 3.75844 217.451 3.89036C217.079 4.02228 216.893 4.23814 216.893 4.53795C216.893 4.74183 217.001 4.91572 217.217 5.05963C217.445 5.20354 217.876 5.29947 218.512 5.34744L221.03 5.50934C222.349 5.59329 223.417 5.79117 224.232 6.10297C225.048 6.40278 225.641 6.82252 226.013 7.36218C226.397 7.90184 226.589 8.56742 226.589 9.35892C226.589 10.3543 226.295 11.2237 225.707 11.9673C225.12 12.7108 224.292 13.2924 223.225 13.7122C222.17 14.1199 220.934 14.3238 219.519 14.3238C218.056 14.3238 216.773 14.1259 215.67 13.7302C214.566 13.3344 213.703 12.7768 213.079 12.0572C212.468 11.3377 212.15 10.5042 212.126 9.5568Z" fill="#FAFBFF"/>
<path d="M16.3412 28.2398C16.1994 29.4568 15.7799 30.5203 15.0828 31.4301C14.3975 32.3399 13.4877 33.0488 12.3534 33.5569C11.2191 34.065 9.91932 34.319 8.45417 34.319C6.87086 34.319 5.48841 34.0295 4.30684 33.4506C3.12526 32.8716 2.20364 32.0622 1.54195 31.0224C0.892089 29.9708 0.567156 28.7479 0.567156 27.3536C0.567156 25.9594 0.892089 24.7424 1.54195 23.7026C2.20364 22.651 3.12526 21.8357 4.30684 21.2567C5.48841 20.6777 6.87086 20.3883 8.45417 20.3883C9.91932 20.3883 11.2191 20.6423 12.3534 21.1504C13.4877 21.6585 14.3975 22.3674 15.0828 23.2772C15.7799 24.187 16.1994 25.2504 16.3412 26.4675H11.7508C11.6444 26.0066 11.4495 25.6167 11.1659 25.2977C10.8823 24.9669 10.5101 24.7187 10.0493 24.5533C9.60029 24.3761 9.06858 24.2875 8.45417 24.2875C7.76885 24.2875 7.17807 24.4115 6.6818 24.6597C6.19736 24.896 5.82516 25.2445 5.56522 25.7053C5.30527 26.1662 5.1753 26.7156 5.1753 27.3536C5.1753 27.9917 5.30527 28.5411 5.56522 29.0019C5.82516 29.4509 6.19736 29.7995 6.6818 30.0476C7.17807 30.2958 7.76885 30.4198 8.45417 30.4198C9.06858 30.4198 9.60029 30.343 10.0493 30.1894C10.5101 30.024 10.8823 29.7818 11.1659 29.4628C11.4495 29.1319 11.6444 28.7243 11.7508 28.2398H16.3412ZM25.65 34.319C24.0312 34.319 22.6133 34.0295 21.3963 33.4506C20.1911 32.8716 19.2517 32.0622 18.5782 31.0224C17.9047 29.9708 17.568 28.7479 17.568 27.3536C17.568 25.9594 17.9047 24.7424 18.5782 23.7026C19.2517 22.651 20.1911 21.8357 21.3963 21.2567C22.6133 20.6777 24.0312 20.3883 25.65 20.3883C27.2687 20.3883 28.6807 20.6777 29.8859 21.2567C31.1029 21.8357 32.0482 22.651 32.7217 23.7026C33.3952 24.7424 33.7319 25.9594 33.7319 27.3536C33.7319 28.7479 33.3952 29.9708 32.7217 31.0224C32.0482 32.0622 31.1029 32.8716 29.8859 33.4506C28.6807 34.0295 27.2687 34.319 25.65 34.319ZM25.65 30.2426C26.3707 30.2426 26.991 30.1303 27.5109 29.9058C28.0308 29.6695 28.4267 29.3387 28.6984 28.9133C28.982 28.4761 29.1238 27.9562 29.1238 27.3536C29.1238 26.751 28.982 26.2371 28.6984 25.8117C28.4267 25.3745 28.0308 25.0437 27.5109 24.8192C26.991 24.5829 26.3707 24.4647 25.65 24.4647C24.9292 24.4647 24.3089 24.5829 23.789 24.8192C23.2691 25.0437 22.8673 25.3745 22.5838 25.8117C22.312 26.2371 22.1761 26.751 22.1761 27.3536C22.1761 27.9562 22.312 28.4761 22.5838 28.9133C22.8673 29.3387 23.2691 29.6695 23.789 29.9058C24.3089 30.1303 24.9292 30.2426 25.65 30.2426ZM47.8503 30.668L46.6097 30.9693V20.7073H51.0406V34H45.3158L38.7226 23.7557L39.9633 23.4544V34H35.5324V20.7073H41.4344L47.8503 30.668ZM55.5799 25.9003H65.2924V29.7109H55.5799V25.9003ZM65.6469 20.7073V24.5179H55.828L57.9194 22.4796V34H53.3467V20.7073H65.6469ZM79.4007 25.7762V28.931H69.3869V25.7762H79.4007ZM72.5239 27.3536L71.7086 32.2985L69.9717 30.3844H80.0565V34H67.1891L68.1639 27.3536L67.1891 20.7073H79.9679V24.3229H69.9717L71.7086 22.4088L72.5239 27.3536ZM85.2588 26.3966H89.7251C90.1741 26.3966 90.5227 26.2902 90.7708 26.0775C91.0189 25.8649 91.143 25.5576 91.143 25.1559C91.143 24.7542 91.0189 24.447 90.7708 24.2343C90.5227 24.0216 90.1741 23.9153 89.7251 23.9153H84.6207L86.6767 21.8593V34H82.104V20.7073H90.4341C91.4975 20.7073 92.425 20.8963 93.2167 21.2744C94.0201 21.6407 94.6405 22.1547 95.0777 22.8164C95.5267 23.4781 95.7512 24.2579 95.7512 25.1559C95.7512 26.0303 95.5267 26.8042 95.0777 27.4777C94.6405 28.1394 94.0201 28.6534 93.2167 29.0197C92.425 29.386 91.4975 29.5691 90.4341 29.5691H85.2588V26.3966ZM86.8184 27.779H91.8697L96.2829 34H91.0544L86.8184 27.779ZM109.664 25.7762V28.931H99.6499V25.7762H109.664ZM102.787 27.3536L101.972 32.2985L100.235 30.3844H110.32V34H97.4522L98.427 27.3536L97.4522 20.7073H110.231V24.3229H100.235L101.972 22.4088L102.787 27.3536ZM124.685 30.668L123.444 30.9693V20.7073H127.875V34H122.15L115.557 23.7557L116.798 23.4544V34H112.367V20.7073H118.269L124.685 30.668ZM145.459 28.2398C145.317 29.4568 144.898 30.5203 144.201 31.4301C143.515 32.3399 142.606 33.0488 141.471 33.5569C140.337 34.065 139.037 34.319 137.572 34.319C135.989 34.319 134.606 34.0295 133.425 33.4506C132.243 32.8716 131.322 32.0622 130.66 31.0224C130.01 29.9708 129.685 28.7479 129.685 27.3536C129.685 25.9594 130.01 24.7424 130.66 23.7026C131.322 22.651 132.243 21.8357 133.425 21.2567C134.606 20.6777 135.989 20.3883 137.572 20.3883C139.037 20.3883 140.337 20.6423 141.471 21.1504C142.606 21.6585 143.515 22.3674 144.201 23.2772C144.898 24.187 145.317 25.2504 145.459 26.4675H140.869C140.762 26.0066 140.567 25.6167 140.284 25.2977C140 24.9669 139.628 24.7187 139.167 24.5533C138.718 24.3761 138.187 24.2875 137.572 24.2875C136.887 24.2875 136.296 24.4115 135.8 24.6597C135.315 24.896 134.943 25.2445 134.683 25.7053C134.423 26.1662 134.293 26.7156 134.293 27.3536C134.293 27.9917 134.423 28.5411 134.683 29.0019C134.943 29.4509 135.315 29.7995 135.8 30.0476C136.296 30.2958 136.887 30.4198 137.572 30.4198C138.187 30.4198 138.718 30.343 139.167 30.1894C139.628 30.024 140 29.7818 140.284 29.4628C140.567 29.1319 140.762 28.7243 140.869 28.2398H145.459ZM158.918 25.7762V28.931H148.904V25.7762H158.918ZM152.041 27.3536L151.226 32.2985L149.489 30.3844H159.574V34H146.707L147.681 27.3536L146.707 20.7073H159.485V24.3229H149.489L151.226 22.4088L152.041 27.3536ZM165.42 25.6345C165.503 24.5474 165.869 23.614 166.519 22.8341C167.169 22.0425 168.031 21.4399 169.107 21.0263C170.194 20.6009 171.411 20.3883 172.758 20.3883C174.046 20.3883 175.168 20.5832 176.125 20.9731C177.082 21.3512 177.827 21.883 178.358 22.5683C178.89 23.2418 179.156 24.0275 179.156 24.9255C179.156 25.6226 178.955 26.2725 178.553 26.8751C178.152 27.4777 177.537 28.0567 176.71 28.612C175.883 29.1674 174.819 29.7168 173.52 30.2603L170.383 31.5719L170.347 30.4553H179.493V34H165.81V30.8806L171.552 27.8145C172.38 27.3773 173.012 27.0169 173.449 26.7333C173.886 26.4497 174.187 26.1957 174.353 25.9712C174.53 25.7349 174.619 25.4808 174.619 25.2091C174.619 24.9137 174.536 24.6656 174.37 24.4647C174.217 24.2638 173.986 24.1102 173.679 24.0039C173.372 23.8857 173.006 23.8266 172.58 23.8266C171.99 23.8266 171.505 23.9094 171.127 24.0748C170.761 24.2402 170.483 24.4588 170.294 24.7305C170.105 25.0023 169.993 25.3036 169.957 25.6345H165.42ZM188.819 34.319C187.272 34.319 185.913 34.0295 184.743 33.4506C183.585 32.8716 182.681 32.0622 182.031 31.0224C181.393 29.9708 181.074 28.7479 181.074 27.3536C181.074 25.9594 181.393 24.7424 182.031 23.7026C182.681 22.651 183.585 21.8357 184.743 21.2567C185.913 20.6777 187.272 20.3883 188.819 20.3883C190.367 20.3883 191.72 20.6777 192.878 21.2567C194.048 21.8357 194.952 22.651 195.59 23.7026C196.24 24.7424 196.565 25.9594 196.565 27.3536C196.565 28.7479 196.24 29.9708 195.59 31.0224C194.952 32.0622 194.048 32.8716 192.878 33.4506C191.72 34.0295 190.367 34.319 188.819 34.319ZM188.837 30.6325C189.841 30.6325 190.621 30.3489 191.177 29.7818C191.744 29.2028 192.027 28.3934 192.027 27.3536C192.027 26.302 191.744 25.4927 191.177 24.9255C190.621 24.3584 189.836 24.0748 188.819 24.0748C187.815 24.0748 187.029 24.3584 186.462 24.9255C185.895 25.4927 185.611 26.2961 185.611 27.3359C185.611 28.3875 185.895 29.2028 186.462 29.7818C187.029 30.3489 187.821 30.6325 188.837 30.6325ZM197.881 25.6345C197.964 24.5474 198.33 23.614 198.98 22.8341C199.63 22.0425 200.493 21.4399 201.568 21.0263C202.655 20.6009 203.872 20.3883 205.219 20.3883C206.507 20.3883 207.629 20.5832 208.586 20.9731C209.543 21.3512 210.288 21.883 210.82 22.5683C211.351 23.2418 211.617 24.0275 211.617 24.9255C211.617 25.6226 211.416 26.2725 211.014 26.8751C210.613 27.4777 209.998 28.0567 209.171 28.612C208.344 29.1674 207.281 29.7168 205.981 30.2603L202.844 31.5719L202.808 30.4553H211.954V34H198.271V30.8806L204.014 27.8145C204.841 27.3773 205.473 27.0169 205.91 26.7333C206.347 26.4497 206.649 26.1957 206.814 25.9712C206.991 25.7349 207.08 25.4808 207.08 25.2091C207.08 24.9137 206.997 24.6656 206.832 24.4647C206.678 24.2638 206.448 24.1102 206.14 24.0039C205.833 23.8857 205.467 23.8266 205.042 23.8266C204.451 23.8266 203.966 23.9094 203.588 24.0748C203.222 24.2402 202.944 24.4588 202.755 24.7305C202.566 25.0023 202.454 25.3036 202.419 25.6345H197.881ZM213.624 25.1382C213.671 24.2756 213.967 23.4899 214.51 22.7809C215.066 22.0602 215.869 21.4812 216.921 21.044C217.984 20.6069 219.284 20.3883 220.82 20.3883C222.108 20.3883 223.23 20.5478 224.187 20.8668C225.144 21.1858 225.889 21.6289 226.42 22.1961C226.952 22.7632 227.218 23.4249 227.218 24.1811C227.218 24.7719 227.035 25.3154 226.669 25.8117C226.314 26.3079 225.735 26.7038 224.932 26.9992C224.128 27.2827 223.065 27.4186 221.741 27.4068V27.0169C222.947 26.9578 223.975 27.0287 224.825 27.2296C225.688 27.4304 226.35 27.7672 226.81 28.2398C227.271 28.7125 227.502 29.3328 227.502 30.1008C227.502 30.9161 227.23 31.6428 226.686 32.2808C226.143 32.907 225.351 33.4033 224.311 33.7696C223.272 34.1359 222.007 34.319 220.518 34.319C219.077 34.319 217.819 34.1241 216.743 33.7341C215.668 33.3442 214.829 32.7889 214.227 32.0681C213.636 31.3474 213.323 30.4966 213.287 29.5159H217.825C217.895 29.9531 218.138 30.2899 218.551 30.5262C218.977 30.7625 219.632 30.8806 220.518 30.8806C221.251 30.8806 221.824 30.7861 222.238 30.5971C222.651 30.3962 222.858 30.1126 222.858 29.7463C222.858 29.5336 222.793 29.3564 222.663 29.2146C222.545 29.0728 222.314 28.9724 221.972 28.9133C221.641 28.8424 221.162 28.807 220.536 28.807H218.338V25.8471H220.536C221.363 25.8471 221.919 25.7585 222.202 25.5813C222.498 25.404 222.645 25.1618 222.645 24.8546C222.645 24.512 222.462 24.2579 222.096 24.0925C221.741 23.9153 221.233 23.8266 220.572 23.8266C219.804 23.8266 219.225 23.9448 218.835 24.1811C218.457 24.4056 218.232 24.7246 218.161 25.1382H213.624Z" fill="#90E416"/>
</svg>
